<?xml version="1.0" encoding="utf-8"?>
<!-- Generator: Adobe Illustrator 22.0.0, SVG Export Plug-In . SVG Version: 6.00 Build 0)  -->
<svg version="1.1" id="图层_1" xmlns="http://www.w3.org/2000/svg" xmlns:xlink="http://www.w3.org/1999/xlink" x="0px" y="0px"
	 viewBox="0 0 48 48" style="enable-background:new 0 0 48 48;" xml:space="preserve">
<style type="text/css">
	.st0{fill:#6AD394;}
</style>
<path class="st0" d="M32.4,16.2h1.5C32.4,9.3,25.2,3.9,16.8,3.9C7.8,4.2,0,10.5,0,18.9c0,4.8,2.4,8.7,6.9,11.7l-1.8,5.1l6-3
	c2.1,0.3,3.9,0.9,6,0.9h1.5C18.3,32.4,18,31.2,18,30C18,22.2,24.6,16.2,32.4,16.2z M23.4,11.4c1.2,0,2.1,0.9,2.1,2.1
	c0,1.2-0.9,2.1-2.1,2.1c-1.2,0.3-2.7-0.6-2.7-2.1C20.7,12.3,22.2,11.4,23.4,11.4z M11.4,15.9C10.2,15.9,9,15,9,13.5
	c0-1.2,1.2-2.1,2.4-2.1s2.1,0.9,2.1,2.1C13.5,15,12.6,15.9,11.4,15.9z"/>
<path class="st0" d="M48,29.7c0-6.9-6.9-12.6-14.4-12.6c-8.1,0-14.4,5.7-14.4,12.6s6.3,12.6,14.4,12.6c1.8,0,3.3-0.6,5.1-0.9
	l4.5,2.7L42,39.6C45.6,36.9,48,33.6,48,29.7z M28.8,27.3c-0.9,0-1.8-0.9-1.8-1.8c0.3-0.6,0.9-1.5,1.8-1.5c1.2,0,2.1,0.9,2.1,1.8
	C30.9,26.7,30.3,27.3,28.8,27.3z M38.1,27.3c-0.9,0-1.8-0.9-1.8-1.8c0-0.9,0.9-1.8,1.8-1.8c1.2,0,2.1,0.9,2.1,1.8
	C40.5,26.7,39.6,27.3,38.1,27.3z"/>
</svg>
