<?xml version="1.0" standalone="no"?><!DOCTYPE svg PUBLIC "-//W3C//DTD SVG 1.1//EN" "http://www.w3.org/Graphics/SVG/1.1/DTD/svg11.dtd"><svg t="1628154702439" class="icon" viewBox="0 0 1024 1024" version="1.1" xmlns="http://www.w3.org/2000/svg" p-id="26409" xmlns:xlink="http://www.w3.org/1999/xlink" width="48" height="48"><defs><style type="text/css"></style></defs><path d="M684.8 678.4l96 96 102.4-102.4V403.2c0-19.2-12.8-38.4-32-51.2l-204.8-70.4v441.6l38.4-44.8zM883.2 1024h70.4v-70.4z" fill="#6AD394" p-id="26410"></path><path d="M608 934.4h-25.6V70.4c0-57.6-57.6-89.6-108.8-57.6L102.4 172.8c-19.2 12.8-32 38.4-32 57.6v697.6H0V1024h704l-96-89.6zM428.8 576l-204.8 83.2V563.2l204.8-83.2V576z m0-217.6L224 448V345.6L428.8 256v102.4z" fill="#6AD394" p-id="26411"></path><path d="M960 710.4l64 64-243.2 236.8-147.2-147.2 57.6-64 89.6 89.6z" fill="#6AD394" p-id="26412"></path></svg>