<?xml version="1.0" standalone="no"?><!DOCTYPE svg PUBLIC "-//W3C//DTD SVG 1.1//EN" "http://www.w3.org/Graphics/SVG/1.1/DTD/svg11.dtd"><svg t="1628154685076" class="icon" viewBox="0 0 1024 1024" version="1.1" xmlns="http://www.w3.org/2000/svg" p-id="25635" xmlns:xlink="http://www.w3.org/1999/xlink" width="48" height="48"><defs><style type="text/css"></style></defs><path d="M921.6 716.8l64 64-243.2 243.2-147.2-147.2 64-64 83.2 83.2 179.2-179.2z m-243.2-83.2l115.2 128-51.2 51.2-89.6-89.6-147.2 147.2 147.2 147.2H128c-32 0-64-19.2-83.2-51.2-12.8-32-6.4-70.4 12.8-96l204.8-243.2c64 38.4 134.4 57.6 204.8 57.6 76.8 6.4 153.6-12.8 211.2-51.2zM473.6 0c166.4 0 300.8 134.4 300.8 300.8S640 601.6 473.6 601.6 172.8 467.2 172.8 300.8 307.2 0 473.6 0z m0 0" fill="#6AD394" p-id="25636"></path></svg>