<?xml version="1.0" encoding="utf-8"?>
<!-- Generator: Adobe Illustrator 22.0.0, SVG Export Plug-In . SVG Version: 6.00 Build 0)  -->
<svg version="1.1" id="图层_1" xmlns="http://www.w3.org/2000/svg" xmlns:xlink="http://www.w3.org/1999/xlink" x="0px" y="0px"
	 viewBox="0 0 24 24" style="enable-background:new 0 0 24 24;" xml:space="preserve">
<style type="text/css">
	.st0{fill:#ABABAB;}
	.st1{clip-path:url(#SVGID_2_);fill:#CACBCC;}
	.st2{fill:#CACBCC;}
	.st3{clip-path:url(#SVGID_4_);fill:#CACBCC;}
	.st4{fill:#FFFFFF;}
</style>
<path class="st0" d="M22.2,2.5c0-0.4-0.3-0.7-0.7-0.7h-4.9V0h6C23.3,0,24,0.6,24,1.4v5.9h-1.8V2.5z M1.8,2.5v4.8H0V1.4
	C0,0.6,0.7,0,1.5,0h5.8v1.8H2.5C2.1,1.8,1.8,2.1,1.8,2.5L1.8,2.5z M1.8,21.4c0,0.4,0.3,0.7,0.7,0.7h4.7V24H1.5C0.7,24,0,23.4,0,22.6
	v-6.1h1.8V21.4z M22.2,21.4v-4.9H24v6.1c0,0.8-0.6,1.4-1.4,1.4h-6v-1.9h4.9C21.8,22.1,22.2,21.8,22.2,21.4L22.2,21.4z M22.2,21.4"/>
<g>
	<polygon class="st0" points="6.2,15.1 6.2,8.9 6.2,8.2 6.2,7.2 2.8,7.2 2.8,8.9 4.6,8.9 4.6,15.1 2.8,15.1 2.8,16.8 8.2,16.8 
		8.2,15.1 	"/>
	<polygon class="st0" points="9.3,7.2 9.3,8.9 13.2,8.9 13.2,11.1 9.3,11.1 9.3,16.8 14.7,16.8 14.7,15.1 10.8,15.1 10.8,12.9 
		14.7,12.9 14.7,12.8 14.7,8.9 14.7,8.6 14.7,7.2 	"/>
	<polygon class="st0" points="15.8,7.2 15.8,8.9 19.7,8.9 19.7,11.1 15.8,11.1 15.8,12.8 19.7,12.8 19.7,15.1 15.8,15.1 15.8,16.8 
		21.2,16.8 21.2,12.8 21.2,12 21.2,7.2 	"/>
</g>
</svg>
