<?xml version="1.0" encoding="utf-8"?>
<!-- Generator: Adobe Illustrator 22.0.0, SVG Export Plug-In . SVG Version: 6.00 Build 0)  -->
<svg version="1.1" id="图层_1" xmlns="http://www.w3.org/2000/svg" xmlns:xlink="http://www.w3.org/1999/xlink" x="0px" y="0px"
	 viewBox="0 0 24 24" style="enable-background:new 0 0 24 24;" xml:space="preserve">
<style type="text/css">
	.st0{fill:#ABABAB;}
</style>
<g>
	<path class="st0" d="M5.7,8.4V6.3C5.7,2.8,8.5,0,12,0c3.5,0,6.3,2.8,6.3,6.3v2.1h0.3c1.8,0,3.3,1.5,3.3,3.3v9
		c0,1.8-1.5,3.3-3.3,3.3H5.4c-1.8,0-3.3-1.5-3.3-3.3v-9c0-1.8,1.5-3.3,3.3-3.3H5.7z M7.5,8.4h9V6.3c0-2.5-2-4.5-4.5-4.5
		c-2.5,0-4.5,2-4.5,4.5V8.4z M3.9,11.7v9c0,0.8,0.7,1.5,1.5,1.5h13.2c0.4,0,0.8-0.2,1.1-0.4c0.3-0.3,0.4-0.7,0.4-1.1v-9
		c0-0.8-0.7-1.5-1.5-1.5H5.4c-0.4,0-0.8,0.2-1.1,0.4C4.1,10.9,3.9,11.3,3.9,11.7L3.9,11.7z M3.9,11.7"/>
</g>
</svg>
