<?xml version="1.0" encoding="utf-8"?>
<!-- Generator: Adobe Illustrator 22.0.0, SVG Export Plug-In . SVG Version: 6.00 Build 0)  -->
<svg version="1.1" id="图层_1" xmlns="http://www.w3.org/2000/svg" xmlns:xlink="http://www.w3.org/1999/xlink" x="0px" y="0px"
	 viewBox="0 0 24 24" style="enable-background:new 0 0 24 24;" xml:space="preserve">
<style type="text/css">
	.st0{fill:#ABABAB;}
	.st1{clip-path:url(#SVGID_2_);fill:#CACBCC;}
	.st2{fill:#CACBCC;}
</style>
<g>
	<g>
		<defs>
			<rect id="SVGID_1_" y="3" width="24" height="18"/>
		</defs>
		<clipPath id="SVGID_2_">
			<use xlink:href="#SVGID_1_"  style="overflow:visible;"/>
		</clipPath>
		<path class="st1" d="M23.8,11.1C23.6,10.7,19.6,3,12,3C4.4,3,0.4,10.7,0.2,11.1c-0.3,0.5-0.3,1.2,0,1.8C0.4,13.2,4.4,21,12,21
			c7.6,0,11.6-7.7,11.8-8.1C24,12.3,24,11.6,23.8,11.1L23.8,11.1z M12,19c-6.5,0-10-7-10-7s3.5-7,10-7c6.5,0,10,7,10,7
			S18.5,19,12,19L12,19z M12,19"/>
	</g>
	<path class="st2" d="M12,8c-2.2,0-4,1.8-4,4c0,2.2,1.8,4,4,4c2.2,0,4-1.8,4-4C16,9.8,14.2,8,12,8L12,8z M12,14c-1.1,0-2-0.9-2-2
		c0-1.1,0.9-2,2-2c1.1,0,2,0.9,2,2C14,13.1,13.1,14,12,14L12,14z M12,14"/>
</g>
</svg>
