<?xml version="1.0" encoding="utf-8"?>
<!-- Generator: Adobe Illustrator 22.0.0, SVG Export Plug-In . SVG Version: 6.00 Build 0)  -->
<svg version="1.1" id="图层_1" xmlns="http://www.w3.org/2000/svg" xmlns:xlink="http://www.w3.org/1999/xlink" x="0px" y="0px"
	 viewBox="0 0 24 24" style="enable-background:new 0 0 24 24;" xml:space="preserve">
<style type="text/css">
	.st0{fill:#ABABAB;}
	.st1{clip-path:url(#SVGID_2_);fill:#CACBCC;}
	.st2{fill:#CACBCC;}
	.st3{clip-path:url(#SVGID_4_);fill:#CACBCC;}
	.st4{fill:#FFFFFF;}
	.st5{fill:#26A054;}
</style>
<g>
	<path class="st4" d="M5.2,9.8c1.2,0,2.2,1,2.2,2.3c0,1.2-1,2.2-2.2,2.2C4,14.2,3,13.2,3,12C3,10.8,4,9.8,5.2,9.8L5.2,9.8z"/>
	<path class="st4" d="M12,9.8c1.2,0,2.3,1,2.3,2.3c0,1.2-1,2.2-2.3,2.2c-1.2,0-2.2-1-2.2-2.2C9.7,10.8,10.8,9.8,12,9.8L12,9.8z"/>
	<path class="st4" d="M18.8,9.8c1.2,0,2.2,1,2.2,2.3c0,1.2-1,2.2-2.2,2.2c-1.2,0-2.2-1-2.2-2.2C16.5,10.8,17.5,9.8,18.8,9.8
		L18.8,9.8z"/>
</g>
</svg>
