<?xml version="1.0" encoding="utf-8"?>
<!-- Generator: Adobe Illustrator 22.0.0, SVG Export Plug-In . SVG Version: 6.00 Build 0)  -->
<svg version="1.1" id="图层_1" xmlns="http://www.w3.org/2000/svg" xmlns:xlink="http://www.w3.org/1999/xlink" x="0px" y="0px"
	 viewBox="0 0 24 24" style="enable-background:new 0 0 24 24;" xml:space="preserve">
<style type="text/css">
	.st0{fill:#ABABAB;}
</style>
<g>
	<path class="st0" d="M15.5,12.4c1.8,0.4,3.6,1.1,5.5,2.1c1.9,1.1,3.1,3.1,3.1,5.2v1.7c0,0.5-0.2,1-0.6,1.4
		c-0.4,0.4-0.9,0.6-1.4,0.6H2c-0.5,0-1-0.2-1.4-0.6C0.2,22.5,0,22,0,21.4v-1.7c0-2.2,1.2-4.2,3.1-5.2c1.8-1,3.6-1.7,5.5-2.1
		C6.1,10.9,5,7.9,5.8,5.2C6.6,2.4,9.1,0.6,12,0.6c2.9,0,5.4,1.9,6.2,4.6C19,7.9,17.9,10.9,15.5,12.4L15.5,12.4z M12,11.4
		c2.4,0,4.4-2,4.4-4.4c0-2.4-2-4.4-4.4-4.4c-2.4,0-4.4,2-4.4,4.4C7.6,9.4,9.6,11.4,12,11.4L12,11.4z M2,19.7v1.6
		c0,0.1,0.1,0.2,0.2,0.2h19.6c0.1,0,0.1,0,0.2-0.1c0,0,0.1-0.1,0.1-0.2v-1.6c0-1.5-0.8-2.9-2.1-3.6c-2.6-1.5-5.3-2.2-7.9-2.2
		s-5.3,0.7-7.9,2.2C2.8,16.9,2,18.2,2,19.7L2,19.7z M1.8,19.8"/>
</g>
</svg>
