<?xml version="1.0" encoding="utf-8"?>
<!-- Generator: Adobe Illustrator 22.0.0, SVG Export Plug-In . SVG Version: 6.00 Build 0)  -->
<svg version="1.1" id="图层_1" xmlns="http://www.w3.org/2000/svg" xmlns:xlink="http://www.w3.org/1999/xlink" x="0px" y="0px"
	 viewBox="0 0 24 24" style="enable-background:new 0 0 24 24;" xml:space="preserve">
<style type="text/css">
	.st0{fill:#ABABAB;}
	.st1{clip-path:url(#SVGID_2_);fill:#CACBCC;}
	.st2{fill:#CACBCC;}
	.st3{clip-path:url(#SVGID_4_);fill:#CACBCC;}
	.st4{fill:#FFFFFF;}
	.st5{fill:#26A054;}
</style>
<path class="st0" d="M22.6,24H1.4c-0.5,0-0.9-0.4-0.9-1V5c0-0.6,0.4-1,0.9-1h3.5c0.5,0,0.9,0.4,0.9,1c0,0.6-0.4,1-0.9,1H2.2v16h19.5
	V6h-2.7c-0.5,0-0.9-0.4-0.9-1c0-0.6,0.4-1,0.9-1h3.5c0.5,0,0.9,0.4,0.9,1v18C23.5,23.5,23.1,24,22.6,24L22.6,24z M22.6,24"/>
<path class="st0" d="M18.2,14.2H5.8c-0.5,0-0.9-0.4-0.9-0.9c0-0.5,0.4-0.9,0.9-0.9h12.4c0.5,0,0.9,0.4,0.9,0.9
	C19.1,13.8,18.7,14.2,18.2,14.2L18.2,14.2z M18.2,19.5H5.8c-0.5,0-0.9-0.4-0.9-0.9c0-0.5,0.4-0.9,0.9-0.9h12.4
	c0.5,0,0.9,0.4,0.9,0.9C19.1,19.1,18.7,19.5,18.2,19.5L18.2,19.5z M12,10.7c-0.5,0-0.9-0.4-0.9-0.9V0.9C11.1,0.4,11.5,0,12,0
	c0.5,0,0.9,0.4,0.9,0.9v8.9C12.9,10.3,12.5,10.7,12,10.7L12,10.7z M12,10.7"/>
<path class="st0" d="M15.5,5.3c-0.2,0-0.5-0.1-0.6-0.3L12,2.2L9.1,5.1c-0.3,0.3-0.9,0.3-1.2,0c-0.3-0.3-0.3-0.9,0-1.2l3.5-3.5
	C11.5,0.1,11.8,0,12,0c0.2,0,0.5,0.1,0.6,0.3l3.5,3.5c0.2,0.2,0.3,0.4,0.3,0.6c0,0.2-0.1,0.5-0.3,0.6C16,5.3,15.8,5.3,15.5,5.3
	L15.5,5.3z M15.5,5.3"/>
</svg>
